<svg width="25" height="25" viewBox="0 0 25 25" fill="none" xmlns="http://www.w3.org/2000/svg">
<g clip-path="url(#clip0_123_50)">
<path d="M20.45 21.75C18.3667 21.75 16.3083 21.2958 14.275 20.3875C12.2417 19.4792 10.3917 18.1917 8.725 16.525C7.05833 14.8583 5.77083 13.0083 4.8625 10.975C3.95417 8.94167 3.5 6.88333 3.5 4.8C3.5 4.5 3.6 4.25 3.8 4.05C4 3.85 4.25 3.75 4.55 3.75H8.6C8.83333 3.75 9.04167 3.82917 9.225 3.9875C9.40833 4.14583 9.51667 4.33333 9.55 4.55L10.2 8.05C10.2333 8.31667 10.225 8.54167 10.175 8.725C10.125 8.90833 10.0333 9.06667 9.9 9.2L7.475 11.65C7.80833 12.2667 8.20417 12.8625 8.6625 13.4375C9.12083 14.0125 9.625 14.5667 10.175 15.1C10.6917 15.6167 11.2333 16.0958 11.8 16.5375C12.3667 16.9792 12.9667 17.3833 13.6 17.75L15.95 15.4C16.1 15.25 16.2958 15.1375 16.5375 15.0625C16.7792 14.9875 17.0167 14.9667 17.25 15L20.7 15.7C20.9333 15.7667 21.125 15.8875 21.275 16.0625C21.425 16.2375 21.5 16.4333 21.5 16.65V20.7C21.5 21 21.4 21.25 21.2 21.45C21 21.65 20.75 21.75 20.45 21.75ZM6.525 9.75L8.175 8.1L7.75 5.75H5.525C5.60833 6.43333 5.725 7.10833 5.875 7.775C6.025 8.44167 6.24167 9.1 6.525 9.75ZM15.475 18.7C16.125 18.9833 16.7875 19.2083 17.4625 19.375C18.1375 19.5417 18.8167 19.65 19.5 19.7V17.5L17.15 17.025L15.475 18.7Z" fill="#E8EAED"/>
</g>
<defs>
<clipPath id="clip0_123_50">
<rect width="24" height="24" fill="white" transform="translate(0.5 0.75)"/>
</clipPath>
</defs>
</svg>
