<svg width="25" height="25" viewBox="0 0 25 25" fill="none" xmlns="http://www.w3.org/2000/svg">
<path d="M12.5 12.25C13.05 12.25 13.5208 12.0542 13.9125 11.6625C14.3042 11.2708 14.5 10.8 14.5 10.25C14.5 9.7 14.3042 9.22917 13.9125 8.8375C13.5208 8.44583 13.05 8.25 12.5 8.25C11.95 8.25 11.4792 8.44583 11.0875 8.8375C10.6958 9.22917 10.5 9.7 10.5 10.25C10.5 10.8 10.6958 11.2708 11.0875 11.6625C11.4792 12.0542 11.95 12.25 12.5 12.25ZM12.5 19.6C14.5333 17.7333 16.0417 16.0375 17.025 14.5125C18.0083 12.9875 18.5 11.6333 18.5 10.45C18.5 8.63333 17.9208 7.14583 16.7625 5.9875C15.6042 4.82917 14.1833 4.25 12.5 4.25C10.8167 4.25 9.39583 4.82917 8.2375 5.9875C7.07917 7.14583 6.5 8.63333 6.5 10.45C6.5 11.6333 6.99167 12.9875 7.975 14.5125C8.95833 16.0375 10.4667 17.7333 12.5 19.6ZM12.5 22.25C9.81667 19.9667 7.8125 17.8458 6.4875 15.8875C5.1625 13.9292 4.5 12.1167 4.5 10.45C4.5 7.95 5.30417 5.95833 6.9125 4.475C8.52083 2.99167 10.3833 2.25 12.5 2.25C14.6167 2.25 16.4792 2.99167 18.0875 4.475C19.6958 5.95833 20.5 7.95 20.5 10.45C20.5 12.1167 19.8375 13.9292 18.5125 15.8875C17.1875 17.8458 15.1833 19.9667 12.5 22.25Z" fill="#E8EAED"/>
</svg>
