<svg width="25" height="25" viewBox="0 0 25 25" fill="none" xmlns="http://www.w3.org/2000/svg">
<path d="M4.5 20.75C3.95 20.75 3.47917 20.5542 3.0875 20.1625C2.69583 19.7708 2.5 19.3 2.5 18.75V6.75C2.5 6.2 2.69583 5.72917 3.0875 5.3375C3.47917 4.94583 3.95 4.75 4.5 4.75H20.5C21.05 4.75 21.5208 4.94583 21.9125 5.3375C22.3042 5.72917 22.5 6.2 22.5 6.75V18.75C22.5 19.3 22.3042 19.7708 21.9125 20.1625C21.5208 20.5542 21.05 20.75 20.5 20.75H4.5ZM12.5 13.75L4.5 8.75V18.75H20.5V8.75L12.5 13.75ZM12.5 11.75L20.5 6.75H4.5L12.5 11.75ZM4.5 8.75V6.75V18.75V8.75Z" fill="#E8EAED"/>
</svg>
