<svg width="45" height="46" viewBox="0 0 45 46" fill="none" xmlns="http://www.w3.org/2000/svg">
<rect y="0.5" width="45" height="45" rx="10" fill="#4D7A68"/>
<path d="M28.125 39.875L16.875 35.9375L8.15625 39.3125C7.53125 39.5625 6.95312 39.4922 6.42188 39.1016C5.89062 38.7109 5.625 38.1875 5.625 37.5312V11.2812C5.625 10.875 5.74219 10.5156 5.97656 10.2031C6.21094 9.89062 6.53125 9.65625 6.9375 9.5L16.875 6.125L28.125 10.0625L36.8438 6.6875C37.4688 6.4375 38.0469 6.50781 38.5781 6.89844C39.1094 7.28906 39.375 7.8125 39.375 8.46875V34.7188C39.375 35.125 39.2578 35.4844 39.0234 35.7969C38.7891 36.1094 38.4688 36.3438 38.0625 36.5L28.125 39.875ZM26.25 35.2812V13.3438L18.75 10.7188V32.6562L26.25 35.2812ZM30 35.2812L35.625 33.4062V11.1875L30 13.3438V35.2812ZM9.375 34.8125L15 32.6562V10.7188L9.375 12.5938V34.8125Z" fill="#E8EAED"/>
</svg>
