<svg width="45" height="46" viewBox="0 0 45 46" fill="none" xmlns="http://www.w3.org/2000/svg">
<rect y="0.5" width="45" height="45" rx="10" fill="#4D7A68"/>
<path d="M22.5 32.375C23.0312 32.375 23.4766 32.1953 23.8359 31.8359C24.1953 31.4766 24.375 31.0312 24.375 30.5C24.375 29.9687 24.1953 29.5234 23.8359 29.1641C23.4766 28.8047 23.0312 28.625 22.5 28.625C21.9688 28.625 21.5234 28.8047 21.1641 29.1641C20.8047 29.5234 20.625 29.9687 20.625 30.5C20.625 31.0312 20.8047 31.4766 21.1641 31.8359C21.5234 32.1953 21.9688 32.375 22.5 32.375ZM22.5 24.875C23.0312 24.875 23.4766 24.6953 23.8359 24.3359C24.1953 23.9766 24.375 23.5312 24.375 23C24.375 22.4687 24.1953 22.0234 23.8359 21.6641C23.4766 21.3047 23.0312 21.125 22.5 21.125C21.9688 21.125 21.5234 21.3047 21.1641 21.6641C20.8047 22.0234 20.625 22.4687 20.625 23C20.625 23.5312 20.8047 23.9766 21.1641 24.3359C21.5234 24.6953 21.9688 24.875 22.5 24.875ZM22.5 17.375C23.0312 17.375 23.4766 17.1953 23.8359 16.8359C24.1953 16.4766 24.375 16.0312 24.375 15.5C24.375 14.9687 24.1953 14.5234 23.8359 14.1641C23.4766 13.8047 23.0312 13.625 22.5 13.625C21.9688 13.625 21.5234 13.8047 21.1641 14.1641C20.8047 14.5234 20.625 14.9687 20.625 15.5C20.625 16.0312 20.8047 16.4766 21.1641 16.8359C21.5234 17.1953 21.9688 17.375 22.5 17.375ZM37.5 38H7.5C6.46875 38 5.58594 37.6328 4.85156 36.8984C4.11719 36.1641 3.75 35.2812 3.75 34.25V26.75C4.78125 26.75 5.66406 26.3828 6.39844 25.6484C7.13281 24.9141 7.5 24.0312 7.5 23C7.5 21.9687 7.13281 21.0859 6.39844 20.3516C5.66406 19.6172 4.78125 19.25 3.75 19.25V11.75C3.75 10.7187 4.11719 9.83594 4.85156 9.10156C5.58594 8.36719 6.46875 8 7.5 8H37.5C38.5312 8 39.4141 8.36719 40.1484 9.10156C40.8828 9.83594 41.25 10.7187 41.25 11.75V19.25C40.2188 19.25 39.3359 19.6172 38.6016 20.3516C37.8672 21.0859 37.5 21.9687 37.5 23C37.5 24.0312 37.8672 24.9141 38.6016 25.6484C39.3359 26.3828 40.2188 26.75 41.25 26.75V34.25C41.25 35.2812 40.8828 36.1641 40.1484 36.8984C39.4141 37.6328 38.5312 38 37.5 38ZM37.5 34.25V29.4687C36.3438 28.7812 35.4297 27.8672 34.7578 26.7266C34.0859 25.5859 33.75 24.3437 33.75 23C33.75 21.6562 34.0859 20.4141 34.7578 19.2734C35.4297 18.1328 36.3438 17.2187 37.5 16.5312V11.75H7.5V16.5312C8.65625 17.2187 9.57031 18.1328 10.2422 19.2734C10.9141 20.4141 11.25 21.6562 11.25 23C11.25 24.3437 10.9141 25.5859 10.2422 26.7266C9.57031 27.8672 8.65625 28.7812 7.5 29.4687V34.25H37.5Z" fill="#E8EAED"/>
</svg>
