<svg width="45" height="46" viewBox="0 0 45 46" fill="none" xmlns="http://www.w3.org/2000/svg">
<rect y="0.5" width="45" height="45" rx="10" fill="#4D7A68"/>
<path d="M28.6875 31.8125L31.3125 29.1875L24.375 22.25V13.625H20.625V23.75L28.6875 31.8125ZM22.5 41.75C19.9062 41.75 17.4687 41.2578 15.1875 40.2734C12.9062 39.2891 10.9219 37.9531 9.23437 36.2656C7.54687 34.5781 6.21094 32.5938 5.22656 30.3125C4.24219 28.0312 3.75 25.5938 3.75 23C3.75 20.4062 4.24219 17.9688 5.22656 15.6875C6.21094 13.4062 7.54687 11.4219 9.23437 9.73438C10.9219 8.04688 12.9062 6.71094 15.1875 5.72656C17.4687 4.74219 19.9062 4.25 22.5 4.25C25.0937 4.25 27.5312 4.74219 29.8125 5.72656C32.0937 6.71094 34.0781 8.04688 35.7656 9.73438C37.4531 11.4219 38.7891 13.4062 39.7734 15.6875C40.7578 17.9688 41.25 20.4062 41.25 23C41.25 25.5938 40.7578 28.0312 39.7734 30.3125C38.7891 32.5938 37.4531 34.5781 35.7656 36.2656C34.0781 37.9531 32.0937 39.2891 29.8125 40.2734C27.5312 41.2578 25.0937 41.75 22.5 41.75ZM22.5 38C26.6562 38 30.1953 36.5391 33.1172 33.6172C36.0391 30.6953 37.5 27.1562 37.5 23C37.5 18.8438 36.0391 15.3047 33.1172 12.3828C30.1953 9.46094 26.6562 8 22.5 8C18.3437 8 14.8047 9.46094 11.8828 12.3828C8.96094 15.3047 7.5 18.8438 7.5 23C7.5 27.1562 8.96094 30.6953 11.8828 33.6172C14.8047 36.5391 18.3437 38 22.5 38Z" fill="#E8EAED"/>
</svg>
